<mxfile host="app.diagrams.net" agent="Mozilla/5.0 (X11; Ubuntu; Linux x86_64; rv:137.0) Gecko/20100101 Firefox/137.0" version="26.2.6">
  <diagram name="Page-1" id="NU1AYNBatzHl4DMh8ky8">
    <mxGraphModel dx="1044" dy="611" grid="1" gridSize="10" guides="1" tooltips="1" connect="1" arrows="1" fold="1" page="1" pageScale="1" pageWidth="850" pageHeight="1100" math="0" shadow="0">
      <root>
        <mxCell id="0" />
        <mxCell id="1" parent="0" />
        <mxCell id="XofYLCPfCk-CVBC4n_OB-1" value="&lt;font style=&quot;font-size: 18px; color: rgb(255, 51, 51);&quot;&gt;Kubernetes&lt;/font&gt;" style="shape=cube;whiteSpace=wrap;html=1;boundedLbl=1;backgroundOutline=1;darkOpacity=0.05;darkOpacity2=0.1;" vertex="1" parent="1">
          <mxGeometry x="50" y="230" width="540" height="330" as="geometry" />
        </mxCell>
        <mxCell id="_kQJqq621nqohT2wWQeY-1" value="&lt;font style=&quot;font-size: 18px;&quot;&gt;Prometheus&lt;/font&gt;" style="rounded=0;whiteSpace=wrap;html=1;" parent="1" vertex="1">
          <mxGeometry x="370" y="265" width="100" height="55" as="geometry" />
        </mxCell>
        <mxCell id="_kQJqq621nqohT2wWQeY-2" value="&lt;div&gt;EBS&lt;/div&gt;&lt;div&gt;TSDB&lt;/div&gt;" style="shape=cylinder3;whiteSpace=wrap;html=1;boundedLbl=1;backgroundOutline=1;size=15;" parent="1" vertex="1">
          <mxGeometry x="500" y="260" width="60" height="80" as="geometry" />
        </mxCell>
        <mxCell id="_kQJqq621nqohT2wWQeY-3" value="" style="endArrow=classic;html=1;rounded=0;exitX=1;exitY=0;exitDx=0;exitDy=0;" parent="1" source="_kQJqq621nqohT2wWQeY-1" target="_kQJqq621nqohT2wWQeY-2" edge="1">
          <mxGeometry width="50" height="50" relative="1" as="geometry">
            <mxPoint x="500" y="290" as="sourcePoint" />
            <mxPoint x="390" y="323" as="targetPoint" />
          </mxGeometry>
        </mxCell>
        <mxCell id="XofYLCPfCk-CVBC4n_OB-2" value="&lt;font style=&quot;font-size: 14px;&quot;&gt;Node 2&lt;/font&gt;" style="ellipse;whiteSpace=wrap;html=1;aspect=fixed;" vertex="1" parent="1">
          <mxGeometry x="85" y="430" width="110" height="110" as="geometry" />
        </mxCell>
        <mxCell id="XofYLCPfCk-CVBC4n_OB-3" value="&lt;font style=&quot;font-size: 14px;&quot;&gt;Node 3&lt;/font&gt;" style="ellipse;whiteSpace=wrap;html=1;aspect=fixed;" vertex="1" parent="1">
          <mxGeometry x="460" y="430" width="110" height="110" as="geometry" />
        </mxCell>
        <mxCell id="XofYLCPfCk-CVBC4n_OB-14" value="" style="edgeStyle=orthogonalEdgeStyle;rounded=0;orthogonalLoop=1;jettySize=auto;html=1;" edge="1" parent="1" source="XofYLCPfCk-CVBC4n_OB-4" target="_kQJqq621nqohT2wWQeY-1">
          <mxGeometry relative="1" as="geometry" />
        </mxCell>
        <mxCell id="XofYLCPfCk-CVBC4n_OB-4" value="&lt;font style=&quot;font-size: 14px;&quot;&gt;Node 1&lt;/font&gt;" style="ellipse;whiteSpace=wrap;html=1;aspect=fixed;" vertex="1" parent="1">
          <mxGeometry x="140" y="265" width="110" height="110" as="geometry" />
        </mxCell>
        <mxCell id="XofYLCPfCk-CVBC4n_OB-5" value="Pod" style="whiteSpace=wrap;html=1;aspect=fixed;" vertex="1" parent="1">
          <mxGeometry x="165" y="300" width="30" height="30" as="geometry" />
        </mxCell>
        <mxCell id="XofYLCPfCk-CVBC4n_OB-6" value="Pod" style="whiteSpace=wrap;html=1;aspect=fixed;" vertex="1" parent="1">
          <mxGeometry x="173" y="310" width="20" height="20" as="geometry" />
        </mxCell>
        <mxCell id="XofYLCPfCk-CVBC4n_OB-7" value="Pod" style="whiteSpace=wrap;html=1;aspect=fixed;" vertex="1" parent="1">
          <mxGeometry x="185" y="320" width="30" height="30" as="geometry" />
        </mxCell>
        <mxCell id="XofYLCPfCk-CVBC4n_OB-8" value="Pod" style="whiteSpace=wrap;html=1;aspect=fixed;" vertex="1" parent="1">
          <mxGeometry x="193" y="330" width="30" height="30" as="geometry" />
        </mxCell>
        <mxCell id="XofYLCPfCk-CVBC4n_OB-10" value="" style="endArrow=classic;html=1;rounded=0;entryX=0;entryY=1;entryDx=0;entryDy=0;" edge="1" parent="1" source="XofYLCPfCk-CVBC4n_OB-2" target="_kQJqq621nqohT2wWQeY-1">
          <mxGeometry width="50" height="50" relative="1" as="geometry">
            <mxPoint x="205" y="410" as="sourcePoint" />
            <mxPoint x="255" y="360" as="targetPoint" />
            <Array as="points">
              <mxPoint x="215" y="420" />
            </Array>
          </mxGeometry>
        </mxCell>
        <mxCell id="XofYLCPfCk-CVBC4n_OB-13" value="" style="endArrow=classic;html=1;rounded=0;" edge="1" parent="1" source="XofYLCPfCk-CVBC4n_OB-3" target="_kQJqq621nqohT2wWQeY-1">
          <mxGeometry width="50" height="50" relative="1" as="geometry">
            <mxPoint x="400" y="350" as="sourcePoint" />
            <mxPoint x="450" y="300" as="targetPoint" />
          </mxGeometry>
        </mxCell>
        <mxCell id="XofYLCPfCk-CVBC4n_OB-16" value="&lt;font style=&quot;font-size: 18px;&quot;&gt;Grafana&lt;/font&gt;" style="whiteSpace=wrap;html=1;aspect=fixed;" vertex="1" parent="1">
          <mxGeometry x="360" y="445" width="80" height="80" as="geometry" />
        </mxCell>
        <mxCell id="XofYLCPfCk-CVBC4n_OB-17" value="" style="endArrow=classic;html=1;rounded=0;entryX=0.685;entryY=0.273;entryDx=0;entryDy=0;entryPerimeter=0;" edge="1" parent="1" source="XofYLCPfCk-CVBC4n_OB-16" target="XofYLCPfCk-CVBC4n_OB-1">
          <mxGeometry width="50" height="50" relative="1" as="geometry">
            <mxPoint x="420" y="427.5" as="sourcePoint" />
            <mxPoint x="400" y="362.5" as="targetPoint" />
          </mxGeometry>
        </mxCell>
        <mxCell id="XofYLCPfCk-CVBC4n_OB-18" value="&lt;b&gt;SLACK&lt;/b&gt;" style="ellipse;shape=cloud;whiteSpace=wrap;html=1;" vertex="1" parent="1">
          <mxGeometry x="270" y="660" width="120" height="80" as="geometry" />
        </mxCell>
        <mxCell id="XofYLCPfCk-CVBC4n_OB-19" value="" style="shape=flexArrow;endArrow=classic;html=1;rounded=0;entryX=0.477;entryY=0.045;entryDx=0;entryDy=0;entryPerimeter=0;" edge="1" parent="1" source="XofYLCPfCk-CVBC4n_OB-16" target="XofYLCPfCk-CVBC4n_OB-18">
          <mxGeometry width="50" height="50" relative="1" as="geometry">
            <mxPoint x="400" y="490" as="sourcePoint" />
            <mxPoint x="450" y="440" as="targetPoint" />
          </mxGeometry>
        </mxCell>
        <mxCell id="XofYLCPfCk-CVBC4n_OB-21" value="ALERTS" style="rounded=1;whiteSpace=wrap;html=1;" vertex="1" parent="1">
          <mxGeometry x="365" y="580" width="65" height="40" as="geometry" />
        </mxCell>
      </root>
    </mxGraphModel>
  </diagram>
</mxfile>
